<svg width="88" height="88" viewBox="0 0 88 88" fill="none" xmlns="http://www.w3.org/2000/svg">
<g filter="url(#filter0_d_4_45)">
<circle cx="44" cy="40" r="30" fill="#2970F6"/>
</g>
<path d="M60.9747 36.4384C60.6628 34.633 60.0731 32.052 59.0353 30.0092C58.6123 29.1764 57.7648 28.6592 56.8236 28.6592H55.0711C54.651 27.7593 54.0008 26.9914 53.175 26.4237C52.2411 25.7817 51.1479 25.4424 50.0136 25.4424H48.5023C47.2087 24.0827 45.8374 23 43.8493 23H26.5137C26.2305 23 26.001 23.2295 26.001 23.5127C26.001 23.7959 26.2305 24.0254 26.5137 24.0254H43.8493C45.0655 24.0254 46.2606 24.5518 47.087 25.4424H26.5137C26.2305 25.4424 26.001 25.6719 26.001 25.9551C26.001 26.2383 26.2305 26.4678 26.5137 26.4678H50.0136C51.8729 26.4678 53.5779 27.6297 54.2562 29.3591C54.3332 29.5555 54.5226 29.6847 54.7334 29.6847H56.8235C57.3766 29.6847 57.8738 29.987 58.121 30.4736C59.1526 32.5044 59.7186 35.1918 59.9642 36.6131C60.0311 36.9999 59.7556 37.4069 59.3588 37.4798C58.9845 34.6337 58.1456 32.3049 57.6735 31.1593C57.465 30.6535 56.9767 30.3266 56.4295 30.3266L52.6898 30.3251C51.8757 30.3251 51.2727 31.2004 51.5804 31.9678C53.2491 36.1273 53.9276 41.7852 54.1613 44.3363L52.614 43.8538C52.7005 43.668 52.739 43.4603 52.7213 43.2494C52.5384 41.0737 52.0737 37.6871 50.8983 33.9093C50.2312 31.7655 48.2796 30.3251 46.0422 30.3251H45.4812C44.6752 30.3251 44.7656 31.3505 45.6376 31.3505H46.0422C47.8282 31.3505 49.3862 32.5012 49.9192 34.2139C51.0672 37.9032 51.521 41.2105 51.6995 43.3353C51.6934 43.4445 51.6407 43.5059 51.5415 43.5194L39.34 39.7146C39.3395 39.7145 39.3389 39.7143 39.3384 39.7141L37.7204 39.208C35.5443 38.5274 33.876 36.8106 33.2579 34.6156L32.3994 31.5677C32.3823 31.4407 32.437 31.3684 32.5638 31.3504H43.433C44.1684 31.3504 44.2607 30.325 43.433 30.325H32.5638C31.7819 30.325 31.2005 31.0931 31.4124 31.8456L32.2709 34.8934C32.9834 37.4232 34.9062 39.4019 37.4143 40.1865L38.948 40.6663L48.9232 48.3023C49.8871 49.0401 50.4626 50.2053 50.4626 51.4192V54.2456H43.7214V53.3483C43.7214 49.8203 40.8512 46.9501 37.3232 46.9501C33.7952 46.9501 30.925 49.8203 30.925 53.3483V54.2456H26.5137C26.2305 54.2456 26.001 54.4751 26.001 54.7583C26.001 55.0415 26.2305 55.271 26.5137 55.271H33.1233C33.2214 55.4912 33.3372 55.7044 33.4702 55.9085C33.6248 56.1458 33.9424 56.2128 34.1796 56.0583C34.4169 55.9038 34.484 55.5862 34.3294 55.3489C33.9518 54.7691 33.7522 54.0961 33.7522 53.4029C33.7522 51.4335 35.3541 49.8313 37.3232 49.8313C39.2923 49.8313 40.8942 51.4335 40.8942 53.4029C40.8942 55.3724 39.2923 56.9746 37.3232 56.9746C36.7456 56.9746 36.1934 56.84 35.682 56.5746C35.4307 56.4442 35.1212 56.5423 34.9908 56.7936C34.8604 57.0449 34.9584 57.3543 35.2097 57.4848C35.8592 57.8218 36.5901 57.9999 37.3232 57.9999C39.193 57.9999 40.8056 56.8775 41.5229 55.2709H57.0563C58.0026 55.2709 58.7724 54.501 58.7724 53.5547V47.3691C58.7724 46.5703 58.3384 45.8579 57.6587 45.4878C57.533 43.7275 56.9474 37.0066 55.0367 31.3519H56.4295C56.5597 31.3519 56.6759 31.4297 56.7255 31.5498C57.0965 32.4501 57.9985 34.8571 58.3607 37.7571C58.4147 38.1905 58.7851 38.5174 59.2223 38.5174C60.298 38.5175 61.1587 37.5026 60.9747 36.4384ZM37.3232 48.8059C34.7887 48.8059 32.7268 50.8681 32.7268 53.4029C32.7268 53.6875 32.753 53.9693 32.8043 54.2456H31.9504V53.3482C31.9504 50.3857 34.3606 47.9754 37.3232 47.9754C40.2858 47.9754 42.696 50.3857 42.696 53.3482V54.2456H41.8422C41.893 53.9723 41.9196 53.6906 41.9196 53.4029C41.9196 50.8681 39.8577 48.8059 37.3232 48.8059ZM57.747 53.5547C57.747 53.9356 57.4371 54.2456 57.0563 54.2456H51.4879V51.4191C51.4879 49.8881 50.7622 48.4185 49.5465 47.488L41.8004 41.5585L56.9622 46.3011C57.4316 46.4479 57.747 46.8771 57.747 47.3691V53.5547ZM56.6006 45.0968L55.2686 44.6815C55.2362 44.6529 55.2152 44.6125 55.2113 44.5674C54.6092 37.5824 53.2743 33.4359 52.5321 31.5859C52.5012 31.4511 52.5538 31.3726 52.6898 31.3504C53.1107 31.3504 53.5315 31.3498 53.9524 31.3519C55.7713 36.5454 56.416 42.8067 56.6006 45.0968Z" fill="white"/>
<path d="M29.5455 37.96H26.5134C26.2302 37.96 26.0007 38.1895 26.0007 38.4727C26.0007 38.7559 26.2302 38.9854 26.5134 38.9854H29.5455C30.7643 38.9854 31.6895 37.7645 31.3525 36.5879L29.9486 31.6872C29.7188 30.8852 28.9758 30.325 28.1416 30.325H26.5134C26.2302 30.325 26.0007 30.5545 26.0007 30.8377C26.0007 31.121 26.2302 31.3504 26.5134 31.3504H28.1416C28.5207 31.3504 28.8584 31.6051 28.9628 31.9696L30.3667 36.8702C30.5209 37.4084 30.1055 37.96 29.5455 37.96Z" fill="white"/>
<path d="M37.3228 55.7441C38.6136 55.7441 39.6638 54.6939 39.6638 53.4029C39.6638 52.1119 38.6137 51.0617 37.3228 51.0617C36.032 51.0617 34.9819 52.1119 34.9819 53.4029C34.9819 54.6939 36.0321 55.7441 37.3228 55.7441ZM37.3228 52.0871C38.0482 52.0871 38.6384 52.6773 38.6384 53.4029C38.6384 54.1285 38.0483 54.7187 37.3228 54.7187C36.5974 54.7187 36.0073 54.1285 36.0073 53.4029C36.0073 52.6773 36.5975 52.0871 37.3228 52.0871Z" fill="white"/>
<defs>
<filter id="filter0_d_4_45" x="0" y="0" width="88" height="88" filterUnits="userSpaceOnUse" color-interpolation-filters="sRGB">
<feFlood flood-opacity="0" result="BackgroundImageFix"/>
<feColorMatrix in="SourceAlpha" type="matrix" values="0 0 0 0 0 0 0 0 0 0 0 0 0 0 0 0 0 0 127 0" result="hardAlpha"/>
<feOffset dy="4"/>
<feGaussianBlur stdDeviation="7"/>
<feComposite in2="hardAlpha" operator="out"/>
<feColorMatrix type="matrix" values="0 0 0 0 0.160784 0 0 0 0 0.439216 0 0 0 0 0.964706 0 0 0 0.33 0"/>
<feBlend mode="normal" in2="BackgroundImageFix" result="effect1_dropShadow_4_45"/>
<feBlend mode="normal" in="SourceGraphic" in2="effect1_dropShadow_4_45" result="shape"/>
</filter>
</defs>
</svg>
