<svg width="88" height="88" viewBox="0 0 88 88" fill="none" xmlns="http://www.w3.org/2000/svg">
<g filter="url(#filter0_d_5_13)">
<circle cx="44" cy="40" r="30" fill="#2970F6"/>
</g>
<path d="M35.6836 30.3633L34.9102 31.1367L36.0039 32.2304C36.0547 32.2812 36.115 32.3215 36.1813 32.349C36.2477 32.3765 36.3188 32.3906 36.3906 32.3906C36.4624 32.3906 36.5336 32.3765 36.5999 32.349C36.6663 32.3215 36.7266 32.2812 36.7773 32.2304L39.5117 29.4961L38.7383 28.7227L36.3906 31.0704L35.6836 30.3633Z" fill="white"/>
<path d="M38.5781 31.2969C38.5776 31.7673 38.4254 32.225 38.1439 32.602C37.8625 32.9789 37.4669 33.255 37.016 33.3891C36.5651 33.5233 36.083 33.5084 35.6413 33.3466C35.1995 33.1848 34.8218 32.8848 34.5642 32.4912C34.3066 32.0975 34.1829 31.6313 34.2115 31.1617C34.2401 30.6922 34.4195 30.2444 34.723 29.8849C35.0264 29.5254 35.4378 29.2735 35.8959 29.1665C36.354 29.0595 36.8344 29.1032 37.2656 29.2911L37.7031 28.2891C37.0555 28.0063 36.3338 27.9402 35.6456 28.1005C34.9573 28.2609 34.3392 28.6391 33.8832 29.179C33.4271 29.7188 33.1575 30.3915 33.1145 31.0969C33.0715 31.8022 33.2573 32.5027 33.6443 33.094C34.0313 33.6852 34.5989 34.1358 35.2626 34.3786C35.9262 34.6214 36.6506 34.6435 37.3278 34.4416C38.005 34.2397 38.599 33.8246 39.0213 33.258C39.4437 32.6914 39.6718 32.0036 39.6719 31.2969H38.5781Z" fill="white"/>
<path d="M35.6836 38.5664L34.9102 39.3398L36.0039 40.4336C36.0547 40.4844 36.115 40.5246 36.1813 40.5521C36.2477 40.5796 36.3188 40.5938 36.3906 40.5938C36.4624 40.5938 36.5336 40.5796 36.5999 40.5521C36.6663 40.5246 36.7266 40.4844 36.7773 40.4336L39.5117 37.6992L38.7383 36.9258L36.3906 39.2735L35.6836 38.5664Z" fill="white"/>
<path d="M38.5781 39.5C38.5776 39.9704 38.4254 40.4281 38.1439 40.8051C37.8625 41.182 37.4669 41.4581 37.016 41.5923C36.5651 41.7264 36.083 41.7115 35.6413 41.5497C35.1995 41.3879 34.8218 41.0879 34.5642 40.6943C34.3066 40.3007 34.1829 39.8344 34.2115 39.3649C34.2401 38.8953 34.4195 38.4475 34.723 38.088C35.0264 37.7286 35.4378 37.4766 35.8959 37.3696C36.354 37.2627 36.8344 37.3064 37.2656 37.4943L37.7031 36.4922C37.0555 36.2094 36.3338 36.1433 35.6456 36.3037C34.9573 36.464 34.3392 36.8422 33.8832 37.3821C33.4271 37.922 33.1575 38.5946 33.1145 39.3C33.0715 40.0054 33.2573 40.7058 33.6443 41.2971C34.0313 41.8884 34.5989 42.3389 35.2626 42.5817C35.9262 42.8246 36.6506 42.8467 37.3278 42.6447C38.005 42.4428 38.599 42.0277 39.0213 41.4611C39.4437 40.8945 39.6718 40.2067 39.6719 39.5H38.5781Z" fill="white"/>
<path d="M35.6836 46.7695L34.9102 47.543L36.0039 48.6367C36.0547 48.6875 36.115 48.7278 36.1813 48.7553C36.2477 48.7827 36.3188 48.7969 36.3906 48.7969C36.4624 48.7969 36.5336 48.7827 36.5999 48.7553C36.6663 48.7278 36.7266 48.6875 36.7773 48.6367L39.5117 45.9023L38.7383 45.1289L36.3906 47.4766L35.6836 46.7695Z" fill="white"/>
<path d="M33.1094 47.7031C33.1094 48.5734 33.4551 49.408 34.0704 50.0233C34.6858 50.6387 35.5204 50.9844 36.3906 50.9844C37.2609 50.9844 38.0955 50.6387 38.7108 50.0233C39.3262 49.408 39.6719 48.5734 39.6719 47.7031H38.5781C38.5776 48.1736 38.4254 48.6313 38.1439 49.0083C37.8625 49.3852 37.4669 49.6613 37.016 49.7955C36.5651 49.9297 36.0829 49.9147 35.6412 49.753C35.1994 49.5912 34.8217 49.2911 34.5641 48.8975C34.3065 48.5038 34.1828 48.0376 34.2114 47.568C34.24 47.0984 34.4194 46.6506 34.7228 46.2911C35.0263 45.9317 35.4377 45.6797 35.8958 45.5727C36.3539 45.4658 36.8343 45.5095 37.2656 45.6974L37.7031 44.6953C37.2037 44.4777 36.658 44.3879 36.1152 44.4338C35.5724 44.4798 35.0496 44.66 34.5939 44.9584C34.1381 45.2568 33.7638 45.664 33.5046 46.1431C33.2455 46.6223 33.1097 47.1584 33.1094 47.7031Z" fill="white"/>
<path d="M56.0781 27.4688H54.4375V25.8281C54.4375 25.6831 54.3799 25.544 54.2773 25.4414C54.1748 25.3389 54.0357 25.2812 53.8906 25.2812H51.7031V26.375H53.3438V52.625H31.4688V26.375H48.4219V25.2812H47.3281C47.3281 24.9912 47.4434 24.713 47.6485 24.5079C47.8536 24.3027 48.1318 24.1875 48.4219 24.1875C48.712 24.1875 48.9902 24.3027 49.1953 24.5079C49.4004 24.713 49.5156 24.9912 49.5156 25.2812V28.5625C49.5156 28.7075 49.458 28.8466 49.3554 28.9492C49.2529 29.0518 49.1138 29.1094 48.9688 29.1094C48.8237 29.1094 48.6846 29.0518 48.5821 28.9492C48.4795 28.8466 48.4219 28.7075 48.4219 28.5625V27.4688H47.3281V28.5625C47.3281 28.9976 47.501 29.4149 47.8087 29.7226C48.1163 30.0303 48.5336 30.2031 48.9688 30.2031C49.4039 30.2031 49.8212 30.0303 50.1288 29.7226C50.4365 29.4149 50.6094 28.9976 50.6094 28.5625V25.2812C50.6094 24.7011 50.3789 24.1447 49.9687 23.7345C49.5584 23.3242 49.002 23.0938 48.4219 23.0938C47.8417 23.0938 47.2853 23.3242 46.8751 23.7345C46.4648 24.1447 46.2344 24.7011 46.2344 25.2812H30.9219C30.7768 25.2812 30.6377 25.3389 30.5352 25.4414C30.4326 25.544 30.375 25.6831 30.375 25.8281V53.1719C30.375 53.3169 30.4326 53.456 30.5352 53.5586C30.6377 53.6611 30.7768 53.7188 30.9219 53.7188H32.5625V55.3594C32.5625 55.5044 32.6201 55.6435 32.7227 55.7461C32.8252 55.8486 32.9643 55.9062 33.1094 55.9062H56.0781C56.2232 55.9062 56.3623 55.8486 56.4648 55.7461C56.5674 55.6435 56.625 55.5044 56.625 55.3594V28.0156C56.625 27.8706 56.5674 27.7315 56.4648 27.6289C56.3623 27.5264 56.2232 27.4688 56.0781 27.4688ZM55.5312 54.8125H33.6562V53.7188H53.8906C54.0357 53.7188 54.1748 53.6611 54.2773 53.5586C54.3799 53.456 54.4375 53.3169 54.4375 53.1719V28.5625H55.5312V54.8125Z" fill="white"/>
<path d="M40.2188 33.4844H50.0625V34.5781H40.2188V33.4844Z" fill="white"/>
<path d="M41.3125 31.2969H51.7031V32.3906H41.3125V31.2969Z" fill="white"/>
<path d="M40.2188 41.6875H50.0625V42.7812H40.2188V41.6875Z" fill="white"/>
<path d="M41.3125 39.5H51.7031V40.5938H41.3125V39.5Z" fill="white"/>
<path d="M41.3125 37.3125H51.7031V38.4062H41.3125V37.3125Z" fill="white"/>
<path d="M40.2188 49.3438H50.0625V50.4375H40.2188V49.3438Z" fill="white"/>
<path d="M41.3125 47.1562H51.7031V48.25H41.3125V47.1562Z" fill="white"/>
<path d="M41.3125 44.9688H51.7031V46.0625H41.3125V44.9688Z" fill="white"/>
<defs>
<filter id="filter0_d_5_13" x="0" y="0" width="88" height="88" filterUnits="userSpaceOnUse" color-interpolation-filters="sRGB">
<feFlood flood-opacity="0" result="BackgroundImageFix"/>
<feColorMatrix in="SourceAlpha" type="matrix" values="0 0 0 0 0 0 0 0 0 0 0 0 0 0 0 0 0 0 127 0" result="hardAlpha"/>
<feOffset dy="4"/>
<feGaussianBlur stdDeviation="7"/>
<feComposite in2="hardAlpha" operator="out"/>
<feColorMatrix type="matrix" values="0 0 0 0 0.160784 0 0 0 0 0.439216 0 0 0 0 0.964706 0 0 0 0.33 0"/>
<feBlend mode="normal" in2="BackgroundImageFix" result="effect1_dropShadow_5_13"/>
<feBlend mode="normal" in="SourceGraphic" in2="effect1_dropShadow_5_13" result="shape"/>
</filter>
</defs>
</svg>
