<svg width="64" height="40" viewBox="0 0 64 40" fill="none" xmlns="http://www.w3.org/2000/svg">
<g clip-path="url(#clip0_9_89)">
<path fill-rule="evenodd" clip-rule="evenodd" d="M0.420861 15.3171L22.4728 7.26786C22.4728 7.26786 25.0773 6.64462 28.8904 6.89587C28.8904 6.89587 30.1437 6.89587 31.4851 7.03271C33.8676 7.27591 34.2149 7.32708 34.9727 9.42447C35.3596 10.4956 35.8098 11.8266 35.9719 12.6361C36.2439 13.9982 34.5679 14.1885 34.5679 14.1885L0.355892 19.7597L0.420861 15.3171Z" fill="white"/>
<path fill-rule="evenodd" clip-rule="evenodd" d="M45.9317 -9.37446e-06C51.7289 0.711771 55.9041 4.0706 56.3853 4.40521C56.4087 4.42125 56.4311 4.43852 56.4526 4.45696V4.45696C56.8229 4.74443 57.131 5.2544 57.2374 5.53095C57.403 5.96254 57.5659 6.39452 57.7261 6.82688C58.4597 6.74121 60.123 6.55205 60.5928 6.54458C60.7573 6.53989 60.9203 6.57598 61.0675 6.64961C61.2147 6.72324 61.3413 6.83213 61.4362 6.96659C61.8697 6.91484 61.7812 7.04765 61.8525 7.21381C61.8525 7.21381 62.7034 6.8493 62.7908 7.52543C62.8483 7.97504 63.2864 9.3503 63.441 10.2921C63.5192 10.7687 63.525 11.1349 63.3732 11.212C63.0777 11.3655 62.3958 11.6633 61.8783 11.7547C61.285 11.8594 61.1464 11.5736 60.9446 11.0694C60.5019 9.96319 60.2507 8.00263 60.7244 7.24141C60.7687 7.17171 60.8333 7.11732 60.9096 7.0856C60.8169 7.02689 60.7088 6.99725 60.5991 7.00051C60.1909 7.00741 58.5989 7.17759 57.8842 7.25636C59.3538 11.2666 60.4979 15.6735 61.7179 19.7654L61.3942 19.5717L61.3891 19.5544C61.1053 19.4508 60.8021 19.4116 60.5014 19.4394C59.9063 19.482 59.3043 19.505 58.7081 19.5331C57.7115 19.5807 56.7138 19.6261 55.7149 19.6694C54.5846 19.7192 53.4539 19.7683 52.3228 19.8166C51.8053 19.8384 51.2879 19.8522 50.7704 19.8827H50.7382L50.7089 19.8885C50.5356 19.9107 50.3596 19.8978 50.1915 19.8505C49.8614 19.7539 49.6677 19.528 49.559 19.2112C49.3175 17.8344 49.0713 16.4581 48.8202 15.0825L56.9183 15.3579C56.9183 15.3579 58.6362 15.4838 59.0554 17.495C59.8821 17.6643 60.6239 18.1164 61.1533 18.7736C59.8885 14.5466 58.5661 10.3335 57.0017 6.20593C56.7303 5.48955 56.6924 5.19691 56.057 4.78467C54.8831 4.0346 53.6595 3.36535 52.3946 2.78157C49.5694 1.46322 47.7485 1.4845 46.4095 1.19127C45.0704 0.898053 45.4792 1.61443 45.4792 1.61443C46.0662 2.24285 49.0669 19.3354 49.0669 19.3354C49.4854 20.633 50.8009 20.3864 50.8009 20.3864C50.8009 20.3864 59.3635 20.0259 60.5353 19.9425C61.707 19.8591 61.7806 20.7583 61.7806 20.7583L60.8072 20.8319L61.3097 22.9977C59.5728 23.7929 55.7638 23.7722 55.7638 23.7722C55.4499 22.7258 54.6547 22.6419 54.6547 22.6419L48.9415 21.6794C48.9415 21.6794 47.3512 21.8047 46.8907 24.1488L42.7678 24.2741C42.7678 24.2741 40.8216 23.9188 40.2145 22.8511C40.2145 22.8511 40.1742 22.4958 40.1035 21.8967L0 23.0001V22.8276L39.9586 20.6428C39.478 16.6527 38.4545 8.60863 37.9831 8.23146L44.3558 6.67509L44.2408 6.10015L37.3524 7.75943C37.3524 7.75943 36.7452 5.18541 34.7991 5.10204C32.8529 5.01868 25.497 5.25728 25.497 5.25728C32.2969 2.88218 38.6748 0.681875 45.9323 -0.00460815L45.9317 -9.37446e-06ZM40.0782 16.5331L45.6511 15.988L46.3635 23.5721C46.3635 23.5721 43.1277 23.8596 42.7925 23.6871C42.4573 23.5146 40.679 23.1432 40.5744 22.5573C40.4697 21.9715 40.0782 16.5302 40.0782 16.5302V16.5331ZM42.7178 8.15155C42.7178 8.15155 41.7978 8.06761 41.922 8.73799C42.0054 9.18357 42.0146 10.6267 42.1589 11.5702C42.2319 12.0474 42.3394 12.3975 42.5085 12.4257C42.8368 12.4803 43.5767 12.5527 44.0971 12.4797C44.6933 12.3964 44.737 12.0813 44.7726 11.5391C44.8514 10.3507 44.4851 8.40855 43.7987 7.83073C43.735 7.77817 43.6567 7.74646 43.5744 7.73989C43.6445 7.6555 43.7382 7.59402 43.8435 7.56338C44.3512 7.40699 45.3539 7.44839 45.3568 7.44839L45.3769 6.98844C45.3734 6.98844 44.2897 6.94531 43.7095 7.12412C43.5517 7.17046 43.4078 7.25514 43.2906 7.3706C43.1734 7.48607 43.0867 7.62874 43.038 7.78588C42.6097 7.87097 42.7367 7.96871 42.7183 8.14982L42.7178 8.15155ZM37.6238 7.11665C37.0988 5.27683 35.9282 4.50238 34.1741 4.29597C33.4924 4.22272 32.8058 4.20714 32.1215 4.2494L30.8239 4.33334C34.2419 3.39389 38.1964 1.75184 41.7076 1.43792C42.3923 1.37698 43.5796 1.42643 43.713 2.40498L44.1028 5.26475C44.1603 5.69136 37.6255 7.11665 37.6255 7.11665H37.6238Z" fill="white"/>
<path fill-rule="evenodd" clip-rule="evenodd" d="M49.3411 24.8824C49.3411 24.8824 54.3213 26.2427 55.9955 26.7659C57.6698 27.2891 60.3277 27.4357 61.1022 26.3893C61.8766 25.3429 62.6925 24.1292 62.6925 24.1292L62.9017 25.8449C62.9247 26.0317 61.8398 27.1437 60.9527 27.8928C60.0903 28.6201 59.7809 28.6017 58.6949 28.6466C56.9045 28.7219 53.8159 28.7754 52.6263 28.2516C51.0568 27.5617 49.3405 24.8824 49.3411 24.8824V24.8824Z" fill="white"/>
<path fill-rule="evenodd" clip-rule="evenodd" d="M62.5792 29.8155C62.5792 29.8155 60.4841 34.0896 49.1709 34.2569L33.0805 33.2099C33.0805 33.2099 33.2904 24.5363 29.2284 23.9913C29.2284 23.9913 24.703 22.8989 24.8709 28.4758L25.1222 32.0405L6.97924 29.1083C6.97924 29.1083 6.96487 26.866 6.49399 25.3504C6.08808 24.0407 5.1538 23.3749 4.59035 24.9992C4.369 25.6368 4.23964 26.6625 4.47536 28.2993L4.53803 28.7593L1.65009 29.4078L5.1032 30.0776C5.1032 30.0776 5.55338 30.7055 6.46352 30.6112C7.22187 30.533 20.8555 32.6235 25.3878 33.3243C27.077 33.5854 26.5728 33.6026 27.8796 34.5369C28.7472 35.1573 30.1219 35.7397 31.8904 35.163C31.8904 35.163 33.7113 34.9537 36.0553 35.8529C38.3994 36.7522 50.3139 40.7273 51.9048 39.8885C53.4957 39.0496 61.9663 36.7027 62.5803 29.8195L62.5792 29.8155ZM5.85408 29.4245C6.54804 29.4147 6.87633 26.5946 5.89548 25.8978C4.86805 25.1688 4.86058 29.4383 5.85408 29.4245ZM27.453 31.5621C28.4655 34.2793 30.9895 33.5629 30.9895 30.6831C30.9895 25.8949 25.788 26.3945 27.453 31.5621Z" fill="white"/>
<path fill-rule="evenodd" clip-rule="evenodd" d="M24.1327 4.97038C21.5696 5.54532 17.5904 6.58022 14.0137 8.11072C8.14925 10.625 5.1308 11.9237 5.1308 11.9237C5.1308 11.9237 4.75248 12.3015 4.40349 12.9983L0.298394 14.6179L0.266773 14.7962L5.99954 12.6154L8.9444 11.5891L10.3271 13.349L15.0618 11.5472C15.0618 11.5472 14.3494 9.49404 16.2353 8.73971C18.1211 7.98538 28.9415 4.23273 28.9415 4.23273C27.936 4.2678 25.3637 4.69268 24.1304 4.97095L24.1327 4.97038Z" fill="white"/>
</g>
<defs>
<clipPath id="clip0_9_89">
<rect width="63.4951" height="40" fill="white"/>
</clipPath>
</defs>
</svg>
