<svg width="15" height="16" viewBox="0 0 15 16" fill="none" xmlns="http://www.w3.org/2000/svg">
<g clip-path="url(#clip0_6_28)">
<path d="M8.75358 9.69023C8.3804 9.93902 7.94692 10.0705 7.5 10.0705C7.05311 10.0705 6.61963 9.93902 6.24645 9.69023L0.099873 5.59239C0.0657715 5.56965 0.0325488 5.54595 0 5.52157V12.2363C0 13.0062 0.624756 13.6172 1.38085 13.6172H13.6191C14.389 13.6172 15 12.9924 15 12.2363V5.52155C14.9674 5.54598 14.9341 5.56974 14.8999 5.5925L8.75358 9.69023Z" fill="#B0B0B0"/>
<path d="M0.587402 4.86108L6.73397 8.95895C6.96665 9.11408 7.23331 9.19163 7.49997 9.19163C7.76666 9.19163 8.03335 9.11405 8.26603 8.95895L14.4126 4.86108C14.7804 4.61601 15 4.20585 15 3.76318C15 3.00202 14.3808 2.3828 13.6196 2.3828H1.38038C0.619248 2.38283 0 3.00205 0 3.76391C0 4.20585 0.219609 4.61601 0.587402 4.86108Z" fill="#B0B0B0"/>
</g>
<defs>
<clipPath id="clip0_6_28">
<rect width="15" height="15" fill="white" transform="translate(0 0.5)"/>
</clipPath>
</defs>
</svg>
