<svg width="36" height="36" viewBox="0 0 36 36" fill="none" xmlns="http://www.w3.org/2000/svg">
<rect width="36" height="36" rx="18" fill="#2970F6"/>
<path d="M27.8239 11.9735L21.7583 18L27.8239 24.0265C27.9335 23.7973 28.0001 23.544 28.0001 23.2734V12.7266C28.0001 12.456 27.9335 12.2027 27.8239 11.9735Z" fill="white"/>
<path d="M26.2422 10.9688H9.75785C9.48726 10.9688 9.23394 11.0353 9.00476 11.1449L16.7572 18.8583C17.4427 19.5438 18.5574 19.5438 19.2428 18.8583L26.9953 11.1449C26.7661 11.0353 26.5128 10.9688 26.2422 10.9688Z" fill="white"/>
<path d="M8.17617 11.9735C8.06652 12.2027 8 12.456 8 12.7266V23.2734C8 23.544 8.06652 23.7974 8.17617 24.0265L14.2418 18L8.17617 11.9735Z" fill="white"/>
<path d="M20.9297 18.8286L20.0714 19.6869C18.9292 20.829 17.0708 20.829 15.9286 19.6869L15.0703 18.8286L9.00476 24.8551C9.23394 24.9647 9.48726 25.0312 9.75785 25.0312H26.2422C26.5128 25.0312 26.7661 24.9647 26.9953 24.8551L20.9297 18.8286Z" fill="white"/>
</svg>
