<svg width="15" height="16" viewBox="0 0 15 16" fill="none" xmlns="http://www.w3.org/2000/svg">
<path d="M14.8679 3.4801L10.3187 7.99999L14.8679 12.5199C14.9501 12.348 15 12.158 15 11.9551V4.04492C15 3.84198 14.9501 3.65199 14.8679 3.4801Z" fill="#2970F6"/>
<path d="M13.6816 2.72656H1.31835C1.11541 2.72656 0.925425 2.77646 0.75354 2.85869L6.56788 8.64375C7.08198 9.15786 7.918 9.15786 8.4321 8.64375L14.2464 2.85869C14.0746 2.77646 13.8846 2.72656 13.6816 2.72656Z" fill="#2970F6"/>
<path d="M0.132129 3.4801C0.0498926 3.65199 0 3.84198 0 4.04492V11.9551C0 12.158 0.0498926 12.348 0.132129 12.5199L4.68132 7.99999L0.132129 3.4801Z" fill="#2970F6"/>
<path d="M9.69726 8.62143L9.05352 9.26517C8.19691 10.1218 6.80305 10.1218 5.94644 9.26517L5.30273 8.62143L0.75354 13.1413C0.925425 13.2236 1.11541 13.2735 1.31835 13.2735H13.6816C13.8846 13.2735 14.0746 13.2236 14.2464 13.1413L9.69726 8.62143Z" fill="#2970F6"/>
</svg>
