<svg width="35" height="36" viewBox="0 0 35 36" fill="none" xmlns="http://www.w3.org/2000/svg">
<rect y="0.5" width="35" height="35" rx="17.5" fill="#2970F6"/>
<path d="M28.4648 23.1562C28.4008 23.1055 23.75 19.7531 22.4734 19.9937C21.8641 20.1016 21.5156 20.5172 20.8164 21.3492C20.7039 21.4836 20.4336 21.8055 20.2234 22.0344C19.7816 21.8903 19.3505 21.7148 18.9336 21.5094C16.7817 20.4617 15.043 18.723 13.9953 16.5711C13.7897 16.1542 13.6143 15.7232 13.4703 15.2812C13.7 15.0703 14.0219 14.8 14.1594 14.6844C14.9875 13.9891 15.4039 13.6406 15.5117 13.0297C15.7328 11.7641 12.3828 7.08125 12.3477 7.03906C12.1957 6.82193 11.9973 6.6413 11.7669 6.51024C11.5366 6.37917 11.2799 6.30096 11.0156 6.28125C9.65781 6.28125 5.78125 11.3102 5.78125 12.157C5.78125 12.2062 5.85234 17.2094 12.0219 23.4852C18.2914 29.6477 23.2938 29.7188 23.343 29.7188C24.1906 29.7188 29.2188 25.8422 29.2188 24.4844C29.1993 24.221 29.1215 23.9652 28.9911 23.7355C28.8608 23.5059 28.681 23.308 28.4648 23.1562Z" fill="#FAFCFF"/>
</svg>
