<svg width="15" height="16" viewBox="0 0 15 16" fill="none" xmlns="http://www.w3.org/2000/svg">
<path d="M14.0789 11.0938C14.0405 11.0633 11.25 9.05188 10.4841 9.19625C10.1184 9.26094 9.90938 9.51031 9.48984 10.0095C9.42234 10.0902 9.26016 10.2833 9.13406 10.4206C8.86894 10.3342 8.61031 10.2289 8.36016 10.1056C7.06899 9.47704 6.02578 8.43382 5.39719 7.14266C5.27384 6.89254 5.16857 6.63391 5.08219 6.36875C5.22 6.24219 5.41313 6.08 5.49563 6.01062C5.9925 5.59344 6.24234 5.38437 6.30703 5.01781C6.43969 4.25844 4.42969 1.44875 4.40859 1.42344C4.3174 1.29316 4.19838 1.18478 4.06016 1.10614C3.92194 1.0275 3.76796 0.980576 3.60938 0.96875C2.79469 0.96875 0.46875 3.98609 0.46875 4.49422C0.46875 4.52375 0.511406 7.52562 4.21312 11.2911C7.97484 14.9886 10.9762 15.0312 11.0058 15.0312C11.5144 15.0312 14.5312 12.7053 14.5312 11.8906C14.5196 11.7326 14.4729 11.5791 14.3947 11.4413C14.3165 11.3035 14.2086 11.1848 14.0789 11.0938Z" fill="#B0B0B0"/>
</svg>
