<svg width="88" height="88" viewBox="0 0 88 88" fill="none" xmlns="http://www.w3.org/2000/svg">
<g filter="url(#filter0_d_5_6)">
<circle cx="44" cy="40" r="30" fill="#2970F6"/>
</g>
<path d="M46.9222 49.5221C46.8676 49.3879 46.7621 49.2807 46.6287 49.224C46.4953 49.1673 46.3449 49.1656 46.2103 49.2193C37.8497 52.7567 28.0068 46.1464 28.1877 37.0389C28.187 33.6493 29.4979 30.3908 31.846 27.9462C34.1941 25.5016 37.397 24.0604 40.7839 23.9245C44.1708 23.7887 47.4789 24.9688 50.0152 27.2175C52.5515 29.4663 54.1192 32.6092 54.39 35.988C54.403 36.132 54.4718 36.2651 54.5816 36.359C54.6915 36.453 54.8337 36.5002 54.978 36.4906C55.0496 36.485 55.1194 36.4654 55.1834 36.4328C55.2474 36.4002 55.3044 36.3553 55.351 36.3007C55.3977 36.2461 55.4332 36.1829 55.4554 36.1145C55.4776 36.0462 55.4861 35.9742 55.4805 35.9026C55.1828 32.3453 53.5627 29.0286 50.94 26.6069C48.3173 24.1851 44.8823 22.8341 41.3125 22.8203C22.4498 23.6009 22.4542 50.4796 41.3126 51.2578C43.1309 51.261 44.9328 50.9134 46.6194 50.234C46.7539 50.1797 46.8614 50.0742 46.9181 49.9407C46.9749 49.8072 46.9764 49.6567 46.9222 49.5221Z" fill="white"/>
<path d="M52.7942 36.4895C52.8657 36.4828 52.9352 36.462 52.9986 36.4284C53.0621 36.3948 53.1183 36.349 53.164 36.2936C53.2097 36.2383 53.2441 36.1744 53.2651 36.1058C53.2862 36.0371 53.2935 35.965 53.2866 35.8935C53.014 32.9101 51.6332 30.1373 49.4165 28.1221C47.1998 26.1069 44.3083 24.9957 41.3125 25.0078C25.3523 25.6684 25.3552 48.4114 41.3126 49.0703C43.9472 49.0764 46.5098 48.2102 48.6003 46.6067C48.7155 46.5187 48.7912 46.3886 48.8105 46.2449C48.8298 46.1011 48.7913 45.9556 48.7033 45.8403C48.6154 45.725 48.4852 45.6494 48.3415 45.6301C48.1978 45.6107 48.0522 45.6493 47.937 45.7372C46.0366 47.1947 43.7073 47.9821 41.3125 47.9766C26.804 47.3769 26.8051 26.7005 41.3126 26.1016C44.0359 26.0906 46.6644 27.1008 48.6796 28.9326C50.6947 30.7645 51.9502 33.2851 52.1982 35.9971C52.2041 36.0689 52.2243 36.1388 52.2577 36.2027C52.291 36.2666 52.3368 36.3231 52.3924 36.369C52.4479 36.4149 52.5121 36.4492 52.5811 36.4699C52.6501 36.4906 52.7226 36.4973 52.7942 36.4895Z" fill="white"/>
<path d="M43.5 37.0391C43.4986 36.5554 43.3368 36.0859 43.0399 35.7041C42.743 35.3223 42.3278 35.0497 41.8594 34.9292V31.7359C41.8839 31.8109 41.924 31.8799 41.9771 31.9382C42.0303 31.9965 42.0952 32.0429 42.1676 32.0743C42.24 32.1057 42.3183 32.1213 42.3972 32.1201C42.4761 32.119 42.5539 32.1011 42.6253 32.0677C42.6968 32.0342 42.7604 31.986 42.8118 31.9261C42.8632 31.8662 42.9014 31.7961 42.9237 31.7204C42.946 31.6447 42.9519 31.5652 42.9412 31.487C42.9304 31.4088 42.9032 31.3338 42.8613 31.2669L41.7697 29.6296C41.7184 29.5559 41.65 29.4957 41.5704 29.4541C41.4908 29.4125 41.4023 29.3908 41.3125 29.3908C41.2227 29.3908 41.1342 29.4125 41.0546 29.4541C40.975 29.4957 40.9066 29.5559 40.8553 29.6296L39.7637 31.2669C39.7218 31.3338 39.6946 31.4088 39.6838 31.487C39.673 31.5652 39.679 31.6448 39.7013 31.7205C39.7236 31.7962 39.7617 31.8663 39.8131 31.9262C39.8646 31.986 39.9281 32.0343 39.9996 32.0677C40.0711 32.1012 40.1489 32.1191 40.2278 32.1202C40.3067 32.1214 40.385 32.1057 40.4574 32.0744C40.5298 32.043 40.5947 31.9966 40.6479 31.9382C40.701 31.8799 40.7411 31.8109 40.7656 31.7359V34.9292C40.3939 35.0289 40.055 35.2246 39.7828 35.4967C39.5107 35.7687 39.3149 36.1076 39.2151 36.4793C39.1154 36.851 39.1152 37.2424 39.2145 37.6141C39.3138 37.9859 39.5092 38.325 39.7811 38.5974L38.1872 41.3584C38.2031 41.2814 38.2026 41.2018 38.1856 41.125C38.1685 41.0481 38.1354 40.9758 38.0884 40.9127C38.0414 40.8496 37.9815 40.7971 37.9127 40.7588C37.844 40.7205 37.7679 40.6973 37.6895 40.6905C37.6111 40.6838 37.5321 40.6937 37.4578 40.7197C37.3835 40.7456 37.3156 40.787 37.2585 40.8412C37.2013 40.8953 37.1563 40.9609 37.1264 41.0337C37.0965 41.1065 37.0823 41.1848 37.0849 41.2635L37.2117 43.2279C37.2189 43.3172 37.2476 43.4035 37.2954 43.4793C37.3432 43.5552 37.4086 43.6184 37.4861 43.6634C37.5636 43.7085 37.6508 43.7341 37.7403 43.7381C37.8299 43.7422 37.9191 43.7244 38.0003 43.6865L39.768 42.8123C39.8377 42.7753 39.8988 42.724 39.9472 42.6616C39.9956 42.5993 40.0302 42.5274 40.0487 42.4507C40.0672 42.374 40.0693 42.2942 40.0546 42.2167C40.04 42.1391 40.0091 42.0656 39.9639 42.0009C39.9188 41.9362 39.8604 41.8818 39.7926 41.8413C39.7249 41.8009 39.6493 41.7753 39.5709 41.7662C39.4925 41.7572 39.4131 41.7649 39.3379 41.7888C39.2627 41.8128 39.1935 41.8524 39.1347 41.9051L40.7319 39.1385C41.0559 39.2284 41.3962 39.2423 41.7265 39.1791C42.0567 39.1159 42.3678 38.9773 42.6357 38.7741C42.9036 38.5709 43.121 38.3087 43.2709 38.0077C43.4208 37.7068 43.4992 37.3753 43.5 37.0391ZM41.3125 38.1328C41.0246 38.1295 40.7496 38.0128 40.5471 37.8081C40.3447 37.6033 40.2312 37.327 40.2312 37.0391C40.2312 36.7511 40.3447 36.4748 40.5472 36.27C40.7496 36.0653 41.0246 35.9486 41.3125 35.9453C41.6005 35.9486 41.8755 36.0653 42.0779 36.2701C42.2803 36.4748 42.3939 36.7511 42.3939 37.0391C42.3939 37.327 42.2803 37.6033 42.0779 37.8081C41.8754 38.0129 41.6004 38.1295 41.3125 38.1328Z" fill="white"/>
<path d="M41.3125 28.2891C41.3843 28.2891 41.4555 28.275 41.5218 28.2475C41.5882 28.22 41.6485 28.1798 41.6993 28.129C41.7501 28.0782 41.7904 28.0179 41.8178 27.9515C41.8453 27.8851 41.8594 27.814 41.8594 27.7422V27.1953C41.8594 27.0503 41.8018 26.9112 41.6992 26.8086C41.5966 26.7061 41.4575 26.6484 41.3125 26.6484C41.1675 26.6484 41.0284 26.7061 40.9258 26.8086C40.8232 26.9112 40.7656 27.0503 40.7656 27.1953V27.7422C40.7656 27.814 40.7797 27.8851 40.8072 27.9515C40.8346 28.0179 40.8749 28.0782 40.9257 28.129C40.9765 28.1798 41.0368 28.22 41.1032 28.2475C41.1695 28.275 41.2407 28.2891 41.3125 28.2891Z" fill="white"/>
<path d="M36.1904 29.261C36.2644 29.3837 36.3835 29.4723 36.5222 29.5081C36.6609 29.5438 36.8081 29.5237 36.9322 29.4521C37.0562 29.3805 37.1472 29.2631 37.1857 29.1251C37.2241 28.9871 37.2069 28.8396 37.1378 28.7142L36.8643 28.2405C36.7907 28.1171 36.6714 28.0277 36.5324 27.9915C36.3933 27.9553 36.2456 27.9753 36.1212 28.0472C35.9967 28.119 35.9056 28.2369 35.8673 28.3754C35.8291 28.5139 35.8469 28.6619 35.9169 28.7874L36.1904 29.261Z" fill="white"/>
<path d="M33.5345 31.9169L33.0608 31.6435C32.9353 31.5733 32.7872 31.5553 32.6485 31.5935C32.5099 31.6317 32.3919 31.7229 32.32 31.8474C32.2481 31.972 32.2281 32.1198 32.2644 32.2589C32.3007 32.3981 32.3903 32.5173 32.5139 32.5909C32.6882 32.6743 33.0576 32.9595 33.2605 32.9375C33.3797 32.9352 33.4949 32.8942 33.5888 32.8207C33.6826 32.7473 33.7501 32.6453 33.781 32.5302C33.8119 32.415 33.8046 32.293 33.7601 32.1824C33.7157 32.0718 33.6365 31.9786 33.5345 31.9169Z" fill="white"/>
<path d="M32.5625 37.0391C32.5625 36.9672 32.5484 36.8961 32.521 36.8297C32.4935 36.7634 32.4532 36.7031 32.4024 36.6523C32.3516 36.6015 32.2913 36.5612 32.225 36.5337C32.1586 36.5063 32.0875 36.4921 32.0156 36.4922H31.4688C31.3237 36.4922 31.1846 36.5498 31.0821 36.6524C30.9795 36.7549 30.9219 36.894 30.9219 37.0391C30.9219 37.1841 30.9795 37.3232 31.0821 37.4258C31.1846 37.5283 31.3237 37.5859 31.4688 37.5859H32.0156C32.0875 37.586 32.1586 37.5719 32.225 37.5444C32.2913 37.5169 32.3516 37.4766 32.4024 37.4259C32.4532 37.3751 32.4935 37.3148 32.521 37.2484C32.5484 37.182 32.5625 37.1109 32.5625 37.0391Z" fill="white"/>
<path d="M32.7879 42.5078C32.9889 42.5307 33.3624 42.2444 33.5345 42.1612C33.6596 42.0884 33.7508 41.969 33.788 41.8291C33.8252 41.6893 33.8055 41.5403 33.7332 41.415C33.6608 41.2896 33.5417 41.1981 33.402 41.1603C33.2622 41.1226 33.1132 41.1418 32.9876 41.2138L32.5139 41.4872C32.4119 41.5489 32.3327 41.6421 32.2883 41.7527C32.2438 41.8633 32.2365 41.9853 32.2674 42.1005C32.2983 42.2156 32.3657 42.3176 32.4596 42.391C32.5535 42.4645 32.6687 42.5055 32.7879 42.5078Z" fill="white"/>
<path d="M36.1172 46.0379C36.2429 46.1102 36.3921 46.1297 36.5321 46.0922C36.6722 46.0546 36.7916 45.9631 36.8643 45.8377L37.1378 45.364C37.2102 45.2383 37.2298 45.0891 37.1922 44.949C37.1546 44.8089 37.063 44.6895 36.9374 44.617C36.8118 44.5446 36.6625 44.5249 36.5224 44.5624C36.3824 44.5999 36.2629 44.6915 36.1904 44.8171L35.9169 45.2908C35.881 45.353 35.8577 45.4217 35.8483 45.4929C35.8389 45.5641 35.8437 45.6365 35.8623 45.7059C35.8808 45.7752 35.9129 45.8403 35.9567 45.8973C36.0004 45.9542 36.055 46.002 36.1172 46.0379Z" fill="white"/>
<path d="M40.7656 46.3359V46.8828C40.7677 47.0265 40.8262 47.1637 40.9285 47.2646C41.0308 47.3655 41.1688 47.422 41.3125 47.422C41.4562 47.422 41.5942 47.3655 41.6965 47.2646C41.7988 47.1637 41.8573 47.0265 41.8594 46.8828V46.3359C41.8573 46.1922 41.7988 46.0551 41.6965 45.9542C41.5942 45.8533 41.4562 45.7968 41.3125 45.7968C41.1688 45.7968 41.0308 45.8533 40.9285 45.9542C40.8262 46.0551 40.7677 46.1922 40.7656 46.3359Z" fill="white"/>
<path d="M45.4872 45.364C45.6542 45.6359 45.8417 46.1437 46.2349 46.1111C46.3305 46.11 46.4242 46.0841 46.5067 46.0359C46.5892 45.9876 46.6577 45.9187 46.7055 45.8359C46.7532 45.7531 46.7786 45.6592 46.779 45.5637C46.7795 45.4681 46.755 45.374 46.7081 45.2908L46.4346 44.8171C46.361 44.6936 46.2418 44.6041 46.1027 44.5679C45.9636 44.5317 45.8158 44.5517 45.6914 44.6236C45.5669 44.6954 45.4757 44.8134 45.4375 44.9519C45.3993 45.0905 45.4172 45.2385 45.4872 45.364Z" fill="white"/>
<path d="M49.5642 31.6435L49.0905 31.9169C48.9673 31.9906 48.8779 32.1098 48.8418 32.2488C48.8057 32.3878 48.8257 32.5355 48.8975 32.6599C48.9693 32.7842 49.0871 32.8754 49.2256 32.9137C49.364 32.9519 49.5119 32.9342 49.6374 32.8643L50.1111 32.5909C50.2343 32.5171 50.3235 32.3979 50.3596 32.2589C50.3957 32.12 50.3757 31.9724 50.3039 31.8481C50.2321 31.7237 50.1143 31.6326 49.976 31.5943C49.8376 31.556 49.6897 31.5737 49.5642 31.6435Z" fill="white"/>
<path d="M45.9604 29.5345C46.3529 29.5675 46.5418 29.0587 46.7081 28.7873C46.7781 28.6618 46.796 28.5138 46.7577 28.3753C46.7195 28.2367 46.6283 28.1188 46.5039 28.0469C46.3794 27.9751 46.2317 27.9551 46.0926 27.9913C45.9535 28.0276 45.8343 28.1171 45.7606 28.2405L45.4872 28.7142C45.4403 28.7974 45.4158 28.8915 45.4163 28.9871C45.4167 29.0827 45.4421 29.1765 45.4899 29.2593C45.5376 29.3421 45.6061 29.411 45.6886 29.4593C45.7711 29.5075 45.8648 29.5334 45.9604 29.5345Z" fill="white"/>
<path d="M58.2656 41.4141V40.8395C58.7404 40.7667 59.1704 40.5178 59.4699 40.1423C59.7695 39.7668 59.9167 39.2922 59.8822 38.8131C59.8477 38.334 59.6341 37.8855 59.2839 37.5567C58.9336 37.228 58.4725 37.0432 57.9921 37.0391H47.6016C47.1212 37.0432 46.6601 37.228 46.3098 37.5567C45.9596 37.8855 45.746 38.3341 45.7115 38.8132C45.6771 39.2923 45.8243 39.7668 46.1238 40.1423C46.4234 40.5178 46.8533 40.7667 47.3281 40.8395C47.2252 41.9602 47.4649 43.0856 48.0156 44.0671C48.5662 45.0485 49.4018 45.8397 50.4118 46.3359C49.4018 46.8322 48.5662 47.6234 48.0156 48.6048C47.4649 49.5862 47.2252 50.7117 47.3281 51.8323C46.8533 51.9052 46.4234 52.1541 46.1238 52.5296C45.8243 52.9051 45.6771 53.3796 45.7115 53.8587C45.746 54.3379 45.9596 54.7864 46.3099 55.1152C46.6601 55.4439 47.1213 55.6287 47.6016 55.6328H57.9922C58.4725 55.6287 58.9337 55.4439 59.2839 55.1151C59.6341 54.7864 59.8477 54.3378 59.8822 53.8587C59.9167 53.3796 59.7695 52.9051 59.4699 52.5296C59.1704 52.1541 58.7404 51.9052 58.2656 51.8323C58.3685 50.7117 58.1288 49.5862 57.5782 48.6048C57.0276 47.6234 56.192 46.8322 55.182 46.3359C56.109 45.8914 56.8909 45.193 57.4368 44.3217C57.9827 43.4504 58.2701 42.4422 58.2656 41.4141ZM46.7813 38.9531C46.7815 38.7356 46.868 38.5271 47.0218 38.3733C47.1756 38.2196 47.3841 38.133 47.6016 38.1328H57.9922C58.2097 38.1328 58.4184 38.2192 58.5722 38.3731C58.7261 38.5269 58.8125 38.7356 58.8125 38.9531C58.8125 39.1707 58.7261 39.3793 58.5722 39.5332C58.4184 39.687 58.2097 39.7734 57.9922 39.7734H47.6016C47.3841 39.7732 47.1756 39.6867 47.0218 39.5329C46.868 39.3791 46.7815 39.1706 46.7813 38.9531ZM48.4219 41.4141V40.8672H57.1719C57.2368 41.5451 57.1501 42.229 56.9179 42.8692C56.6857 43.5095 56.3139 44.09 55.8295 44.5686C55.5846 43.9651 55.1651 43.4484 54.6249 43.0846C54.0847 42.7208 53.4482 42.5265 52.7969 42.5265C52.1456 42.5265 51.5091 42.7208 50.9688 43.0846C50.4286 43.4484 50.0092 43.9652 49.7643 44.5687C49.3385 44.1612 49 43.6715 48.7692 43.1292C48.5384 42.5869 48.4203 42.0034 48.4219 41.4141ZM58.8125 53.7188C58.8123 53.9362 58.7258 54.1447 58.572 54.2985C58.4182 54.4523 58.2097 54.5388 57.9922 54.5391H47.6016C47.384 54.5391 47.1754 54.4526 47.0215 54.2988C46.8677 54.145 46.7813 53.9363 46.7813 53.7188C46.7813 53.5012 46.8677 53.2925 47.0215 53.1387C47.1754 52.9849 47.384 52.8984 47.6016 52.8984H57.9922C58.2097 52.8987 58.4182 52.9852 58.572 53.139C58.7258 53.2928 58.8123 53.5013 58.8125 53.7188ZM52.7969 50.7109C53.1802 50.712 53.5566 50.8135 53.8885 51.0054C54.2203 51.1973 54.4961 51.4729 54.6882 51.8047H50.9056C51.0977 51.4729 51.3734 51.1973 51.7053 51.0054C52.0371 50.8135 52.4135 50.712 52.7969 50.7109ZM57.1719 51.2578V51.8047H55.8832C55.688 51.2548 55.3498 50.7667 54.9035 50.3907C54.4572 50.0148 53.9188 49.7644 53.3438 49.6654V47.9766C53.3438 47.8315 53.2861 47.6924 53.1836 47.5899C53.081 47.4873 52.9419 47.4297 52.7969 47.4297C52.6518 47.4297 52.5127 47.4873 52.4102 47.5899C52.3076 47.6924 52.25 47.8315 52.25 47.9766V49.6654C51.6749 49.7644 51.1365 50.0148 50.6902 50.3907C50.2439 50.7667 49.9058 51.2548 49.7106 51.8047H48.4219C48.3036 50.7258 48.5844 49.6409 49.2112 48.7549C49.8381 47.8689 50.7677 47.243 51.8244 46.9955C52.2044 46.9093 52.2806 46.5495 52.25 46.2099C52.25 46.0859 52.2078 45.9656 52.1305 45.8687C52.0532 45.7717 51.9452 45.7039 51.8244 45.6764C51.4267 45.5854 51.0435 45.4398 50.6858 45.2436C50.8086 44.7773 51.0823 44.3648 51.4642 44.0705C51.8461 43.7761 52.3147 43.6165 52.7969 43.6165C53.2791 43.6165 53.7477 43.7761 54.1296 44.0705C54.5115 44.3648 54.7852 44.7773 54.908 45.2436C54.5503 45.4398 54.1671 45.5854 53.7694 45.6764C53.6485 45.7039 53.5406 45.7717 53.4632 45.8687C53.3859 45.9656 53.3438 46.0859 53.3438 46.2099C53.312 46.546 53.3919 46.9126 53.7694 46.9955C54.7376 47.2114 55.6029 47.7518 56.2217 48.5271C56.8406 49.3023 57.1758 50.2659 57.1719 51.2578Z" fill="white"/>
<defs>
<filter id="filter0_d_5_6" x="0" y="0" width="88" height="88" filterUnits="userSpaceOnUse" color-interpolation-filters="sRGB">
<feFlood flood-opacity="0" result="BackgroundImageFix"/>
<feColorMatrix in="SourceAlpha" type="matrix" values="0 0 0 0 0 0 0 0 0 0 0 0 0 0 0 0 0 0 127 0" result="hardAlpha"/>
<feOffset dy="4"/>
<feGaussianBlur stdDeviation="7"/>
<feComposite in2="hardAlpha" operator="out"/>
<feColorMatrix type="matrix" values="0 0 0 0 0.160784 0 0 0 0 0.439216 0 0 0 0 0.964706 0 0 0 0.33 0"/>
<feBlend mode="normal" in2="BackgroundImageFix" result="effect1_dropShadow_5_6"/>
<feBlend mode="normal" in="SourceGraphic" in2="effect1_dropShadow_5_6" result="shape"/>
</filter>
</defs>
</svg>
