<svg width="15" height="16" viewBox="0 0 15 16" fill="none" xmlns="http://www.w3.org/2000/svg">
<g clip-path="url(#clip0_4_71)">
<path d="M7.3931 7.72554C8.38575 7.72554 9.24532 7.36952 9.94764 6.66708C10.65 5.96476 11.006 5.10543 11.006 4.11266C11.006 3.12023 10.65 2.26078 9.94752 1.55823C9.24509 0.856024 8.38564 0.5 7.3931 0.5C6.40033 0.5 5.54099 0.856024 4.83867 1.55835C4.13635 2.26067 3.78021 3.12011 3.78021 4.11266C3.78021 5.10543 4.13635 5.96488 4.83879 6.6672C5.54122 7.3694 6.40067 7.72554 7.3931 7.72554Z" fill="#B0B0B0"/>
<path d="M13.7147 12.0342C13.6944 11.7419 13.6534 11.4231 13.5931 11.0864C13.5322 10.7472 13.4539 10.4266 13.36 10.1335C13.2631 9.83056 13.1312 9.53141 12.9683 9.24474C12.7991 8.94719 12.6005 8.6881 12.3775 8.4749C12.1444 8.25185 11.859 8.07252 11.529 7.94172C11.2001 7.8116 10.8356 7.74568 10.4457 7.74568C10.2926 7.74568 10.1445 7.80851 9.85848 7.9947C9.68247 8.10949 9.47659 8.24224 9.24679 8.38907C9.0503 8.51426 8.78411 8.63157 8.45532 8.73777C8.13455 8.84156 7.80885 8.89421 7.48739 8.89421C7.16592 8.89421 6.84034 8.84156 6.51922 8.73777C6.19078 8.63168 5.92459 8.51438 5.72832 8.38918C5.5007 8.24373 5.29471 8.11098 5.11607 7.99459C4.83042 7.8084 4.68222 7.74557 4.5291 7.74557C4.13909 7.74557 3.77471 7.8116 3.44592 7.94183C3.1161 8.07241 2.83058 8.25174 2.59723 8.47501C2.37442 8.68833 2.17563 8.94731 2.00672 9.24474C1.84387 9.53141 1.71203 9.83044 1.61499 10.1336C1.52126 10.4267 1.44287 10.7472 1.38199 11.0864C1.32168 11.4227 1.28071 11.7416 1.26045 12.0346C1.24054 12.3216 1.23047 12.6195 1.23047 12.9203C1.23047 13.7033 1.47938 14.3372 1.97021 14.8047C2.45498 15.266 3.09642 15.5001 3.87645 15.5001H11.099C11.879 15.5001 12.5202 15.2661 13.0051 14.8047C13.4961 14.3376 13.745 13.7036 13.745 12.9202C13.7449 12.618 13.7347 12.3199 13.7147 12.0342Z" fill="#B0B0B0"/>
</g>
<defs>
<clipPath id="clip0_4_71">
<rect width="14.9999" height="15" fill="white" transform="translate(0 0.5)"/>
</clipPath>
</defs>
</svg>
